PathFileType	4	(X/Y/Z)	./resultDataOpenSim/trcMotMarkerGrf/sub09/qtm-04-05.trc
DataRate	CameraRate	NumFrames	NumMarkers	Units	OrigDataRate	OrigDataStartFrame	OrigNumFrames
250.000000	250.000000	6	24	m	250.000000	314	501
Frame#	Time	L.Toe.Tip			R.Toe.Tip			L.Ankle.Lat			R.Ankle.Lat			L.Ankle.Med			R.Ankle.Med			L.Heel			R.Heel			L.Knee.Lat			R.Knee.Lat			L.Knee.Med			R.Knee.Med			L.Thigh.Upper			R.Thigh.Upper			L.ASIS			R.ASIS			V.Sacral			L.Acromium			R.Acromium			C7			L.Elbow			R.Elbow			L.Wrist.Lat			R.Wrist.Lat
		X1	Y1	Z1	X2	Y2	Z2	X3	Y3	Z3	X4	Y4	Z4	X5	Y5	Z5	X6	Y6	Z6	X7	Y7	Z7	X8	Y8	Z8	X9	Y9	Z9	X10	Y10	Z10	X11	Y11	Z11	X12	Y12	Z12	X13	Y13	Z13	X14	Y14	Z14	X15	Y15	Z15	X16	Y16	Z16	X17	Y17	Z17	X18	Y18	Z18	X19	Y19	Z19	X20	Y20	Z20	X21	Y21	Z21	X22	Y22	Z22	X23	Y23	Z23	X24	Y24	Z24

314	1.252	0.22179434	-0.024408715	0.0012232456	1.0958676	0.041851599	0.099870582	0.16425666	0.11410982	-0.074139971	0.94773481	0.053008869	0.13489232	0.19652666	0.11396365	0.018088329	0.9522725	0.091985643	0.043594638	0.10070275	0.14460418	-0.028968935	0.87872827	0.031647871	0.086789465	0.46303179	0.41579613	-0.10636241	0.91965162	0.5082109	0.19047121	0.47316077	0.39802527	0.018504147	0.90443531	0.4921	0.065765186	0.60767502	0.79815644	-0.11730155	0.66995074	0.82495648	0.25202539	0.71967402	0.8694581	-0.072818144	0.73669022	0.90101593	0.16483959	0.56548539	0.94847102	0.056315993	0.76234117	1.337815	-0.10631755	0.72362418	1.3436549	0.22294211	0.67468815	1.3925276	0.051888149	0.64407436	0.97630418	-0.1782005	0.53814053	1.0385125	0.30435223	0.89303207	0.86489797	-0.14616784	0.61738889	0.7841232	0.37673364
315	1.256	0.22393211	-0.02252314	0.00055116197	1.0961711	0.041572712	0.099808318	0.17039125	0.11810587	-0.074558096	0.9480187	0.052841846	0.13474571	0.20311891	0.11721108	0.017515425	0.95256692	0.091931781	0.043423842	0.10817364	0.15051555	-0.029318661	0.87890099	0.03174952	0.086819232	0.4747385	0.41422089	-0.10735235	0.9258551	0.50810202	0.19041415	0.48473898	0.39596218	0.017347301	0.91103811	0.49315931	0.06544092	0.61569167	0.79761249	-0.11670397	0.67686585	0.82610478	0.25278242	0.72708081	0.86952409	-0.071622829	0.74362099	0.90202918	0.1656701	0.57308893	0.94903256	0.056209202	0.76931533	1.3382666	-0.10594251	0.73012943	1.3440497	0.22328812	0.68134319	1.3929493	0.052135813	0.65028805	0.97715178	-0.1776857	0.54558085	1.0381141	0.30438017	0.89804699	0.86310491	-0.14583106	0.62627175	0.78402427	0.37660726
316	1.26	0.22629874	-0.020388921	-0.00011398613	1.0964079	0.041353032	0.099692036	0.17691345	0.12227935	-0.074873051	0.94807557	0.052680481	0.13466918	0.21002005	0.12061485	0.017098401	0.95292254	0.091972457	0.043230547	0.11602502	0.15657472	-0.029566963	0.8790578	0.031837467	0.086769944	0.48673124	0.41265952	-0.10825893	0.93184651	0.50798216	0.19051424	0.49696943	0.39389312	0.016124383	0.9174091	0.49400598	0.065149176	0.62364675	0.79714396	-0.11613372	0.68369645	0.82721706	0.25352891	0.73436737	0.86968741	-0.070453201	0.75049867	0.9030558	0.16654467	0.58015395	0.94961835	0.056582064	0.77623551	1.3387938	-0.10558019	0.7366046	1.3445161	0.22361549	0.68789689	1.3934974	0.052375308	0.65651184	0.97807253	-0.1771858	0.55310742	1.0377798	0.30444911	0.90294381	0.86126645	-0.1454951	0.63516614	0.78396958	0.37643299
317	1.264	0.22888585	-0.018014952	-0.00077460527	1.0966185	0.04116854	0.099422845	0.18389731	0.12663846	-0.075090336	0.94808063	0.052590024	0.13460085	0.21722804	0.12416207	0.01683578	0.95332009	0.092035177	0.042999187	0.1242407	0.16276238	-0.029723278	0.87919022	0.031904959	0.086667536	0.49900541	0.41110604	-0.10910401	0.93769899	0.50789572	0.19075605	0.5096009	0.3918796	0.014983299	0.9234665	0.494594	0.064906595	0.63153874	0.79676734	-0.11561735	0.69043439	0.82829132	0.25425261	0.7415519	0.86995075	-0.069323277	0.75731409	0.90406965	0.16744519	0.58681911	0.95024087	0.057198375	0.78308687	1.3393944	-0.10522343	0.74304673	1.3450542	0.22392517	0.69436578	1.3941438	0.05259421	0.66274358	0.97905657	-0.17670277	0.56068443	1.0375024	0.30454306	0.90773843	0.8593886	-0.14517113	0.6440672	0.78396161	0.37620112
318	1.268	0.23166814	-0.015500402	-0.0014629141	1.0968116	0.041012112	0.099042243	0.19136678	0.13117281	-0.075209135	0.94820996	0.052587086	0.13449229	0.22473465	0.127841	0.016725179	0.95370109	0.092053124	0.0427474	0.13280605	0.16908486	-0.029799262	0.87928649	0.031947481	0.08655079	0.51149284	0.40955009	-0.1099129	0.94341058	0.5078383	0.19104236	0.5222183	0.39007408	0.014068067	0.92914348	0.49491848	0.064723979	0.63934142	0.79650098	-0.11510636	0.69708739	0.82933522	0.25494742	0.74863659	0.87032345	-0.06825463	0.76405359	0.90506007	0.16835469	0.59333848	0.95091527	0.057783432	0.78985751	1.3400722	-0.1048707	0.74944328	1.3456731	0.22421539	0.70076541	1.3948651	0.052791899	0.66898421	0.98010261	-0.17623407	0.56820856	1.0372723	0.3046064	0.91243965	0.85748323	-0.14486994	0.65297337	0.78401505	0.37590286
319	1.272	0.23461472	-0.012936826	-0.0022246951	1.0969618	0.040887378	0.098699494	0.19932288	0.13586444	-0.075257354	0.94847098	0.052648763	0.13436903	0.23253015	0.13163938	0.016750427	0.95401703	0.092005921	0.042511578	0.14172426	0.17555891	-0.029801975	0.87933735	0.031965101	0.086448091	0.52410495	0.4080075	-0.11066461	0.9488772	0.50774179	0.19118809	0.53476529	0.38855396	0.013358531	0.93441542	0.49501028	0.064606488	0.64701837	0.79635482	-0.11452224	0.70367498	0.83036045	0.25561135	0.75559967	0.87082847	-0.06726625	0.77070798	0.90602529	0.16925785	0.5998761	0.95166224	0.058221249	0.79653807	1.3408328	-0.10453149	0.75578366	1.3463849	0.22448444	0.70709364	1.3956471	0.052977448	0.67523082	0.98121323	-0.17577068	0.57559737	1.0370807	0.30459331	0.91704637	0.85556114	-0.14459906	0.66188322	0.78414564	0.3755326
